<?xml version="1.0" encoding="UTF-8"?>
<svg id="Layer_1" data-name="Layer 1" xmlns="http://www.w3.org/2000/svg" xmlns:xlink="http://www.w3.org/1999/xlink" viewBox="0 0 531.7129 630.1486">
  <defs>
    <linearGradient id="linear-gradient" x1="414.2924" y1="81.2386" x2="87.0835" y2="647.981" gradientUnits="userSpaceOnUse">
      <stop offset=".3752" stop-color="#225600"/>
      <stop offset="1" stop-color="#fff"/>
    </linearGradient>
  </defs>
  <path d="M202.8624,484.0978l-146.6657,146.0507-.1929-145.9395-55.9859-.0644-.0179-265.4507,122.002-122.0875,23.4594,23.4856L265.7874,0l107.6015,109.1866,32.7832-32.6363,62.2768,63.2271,63.1946,63.5636.0694,254.6395-26.1981,26.2047-302.6524-.0873ZM345.5495,191.4892l-7.2165-36.5765,36.6958,19.0112c8.6883,4.5012,16.4649,9.2844,25.6192,12.6572-13.0363-14.8341-25.2323-26.8465-38.2232-39.9786l-96.6886-97.7399-96.3863,96.593,31.2157,31.4301,65.4559-65.3135,48.386,49.1627,31.142,30.7543ZM419.5353,170.2718l73.965,44.0456-87.7782-88.0059-8.4032,8.5045,22.2164,35.4557ZM122.7839,186.5714l61.815,19.3547-62.6742-61.4221-89.7171,89.5084,90.5763-47.441ZM91.5475,544.8465l95.8217-95.3799,308.6268.0437.0141-186.5854-460.2797-.0019-.0052,186.5823,55.3231.014.4991,95.3272Z" fill="url(#linear-gradient)"/>
</svg>